<svg width="50" height="50" viewBox="0 0 50 50" fill="none" xmlns="http://www.w3.org/2000/svg">
<path d="M25.4895 43.9935C25.3504 43.9929 25.2132 43.9624 25.0871 43.904C20.8574 41.8108 16.9062 39.1995 13.3249 36.1305C5.80949 29.5919 2.74518 22.5222 4.46617 15.6841C5.32976 11.6708 8.5489 7.1512 13.7769 6.20652C15.9024 5.82107 18.091 5.9769 20.1401 6.65956C22.1891 7.34222 24.0323 8.52964 25.4988 10.1118C26.9719 8.52725 28.8223 7.33935 30.8785 6.65828C32.9347 5.9772 35.13 5.82501 37.2609 6.21579C39.7109 6.68432 41.9292 7.96741 43.5537 9.85556C43.6523 9.94525 43.7307 10.0547 43.7839 10.1767C43.8371 10.2987 43.8638 10.4306 43.8623 10.5637C43.8609 10.6967 43.8313 10.828 43.7754 10.9488C43.7196 11.0697 43.6388 11.1774 43.5383 11.2649C43.4378 11.3524 43.3199 11.4178 43.1923 11.4567C43.0648 11.4956 42.9304 11.5073 42.798 11.4908C42.6656 11.4743 42.5383 11.4301 42.4242 11.3611C42.3101 11.2922 42.2119 11.1999 42.136 11.0904C40.7781 9.51153 38.9228 8.43936 36.874 8.04956C36.58 7.98164 30.7484 6.719 26.3036 12.0228C26.2192 12.1618 26.1001 12.2766 25.958 12.3561C25.8159 12.4357 25.6555 12.4772 25.4926 12.4766C25.3361 12.4766 25.1821 12.4383 25.044 12.3651C24.9058 12.2919 24.7877 12.186 24.7001 12.0567C20.2491 6.71282 14.3959 7.98165 14.1483 8.0434C9.73439 8.84297 7.02906 12.6741 6.29856 16.1009C2.81944 29.9191 22.3942 40.4247 25.4895 41.9838C28.5848 40.4402 48.1564 29.9222 44.6804 16.1318C44.6439 16.0096 44.6326 15.8813 44.6472 15.7547C44.6618 15.628 44.7019 15.5056 44.7652 15.3949C44.8284 15.2841 44.9135 15.1872 45.0153 15.1101C45.1171 15.033 45.2334 14.9772 45.3574 14.9462C45.4814 14.9151 45.6104 14.9094 45.7366 14.9293C45.8628 14.9493 45.9837 14.9946 46.0919 15.0624C46.2002 15.1302 46.2935 15.2191 46.3664 15.3238C46.4392 15.4286 46.4902 15.5469 46.5159 15.6718C48.2369 22.5099 45.1756 29.5641 37.6571 36.1181C34.0757 39.187 30.1245 41.7983 25.895 43.8916C25.7688 43.9544 25.6304 43.9891 25.4895 43.9935Z" fill="#262626" stroke="#DD4A4A" stroke-width="2"/>
</svg>
